<svg id="Layer_1" data-name="Layer 1" xmlns="http://www.w3.org/2000/svg" viewBox="0 0 545.36 413.12"><defs><style>.cls-1{fill:#ecd552;}.cls-2{fill:#4e7421;}</style></defs><title>baby-yoda</title><path class="cls-1" d="M297.65.28c1.37,2.94-.71,4.22-1.68,5.8-2,3.24-4.4,6.25-5.32,10.08-.48,2-.34,3.79,1.39,4.9s3.54.41,5.12-.7c3.19-2.24,3.2-6,4.49-9.2.68-1.7.58-4.59,3.55-3.68s1.24,3.37.83,5.07c-2.36,9.81-1.16,12.27,8.27,15.71,15.81,5.77,31.54,11.67,44.55,22.9a61.52,61.52,0,0,1,8.07,8.15c1.91,2.41,3.82,3,6.07.39,7.53-8.91,16.5-9.18,26.55-4.72,10.61,4.71,21.08,10,32.51,12.47,17.45,3.85,34.8,1.33,52.09-1.46,18.26-2.94,35.79-8.77,53.55-13.66,6.07-1.66,8.56.52,7.39,6.72a17.5,17.5,0,0,1-2,5.07c-19,34.42-42.22,65.39-72.67,90.58q-30.72,25.4-70.59,23.84a67.94,67.94,0,0,1-13.71-2.42,30,30,0,0,0-8.1-.79c6,4.8,6.53,11.37,7.41,17.95.58,4.36,2.93,8.08,5.82,11.42,8.46,9.76,12.06,20.7,8.89,33.67-2.13,8.67.75,16.62,5,24.12,3.19,5.6,7.29,10.8,8,17.55.62,6.27-1.27,11.75-5,16.78-4.21,5.61-4.31,6.94.27,12.15,10.95,12.46,20.69,25.67,26.16,41.52,3.66,10.62,6.21,21.48,3.68,32.8-2.33,10.41-8.93,17.61-18,22.77a13.31,13.31,0,0,1-8.17,1.86c-17.06-2.11-33.9-.31-50.68,2.58-21.91,3.78-43.62,3.72-65.35-1.81-15.68-4-31.83-2.54-47.77-1.91-28.13,1.12-56.26,2-84.42,2-5.66,0-11.32.47-17,.37-18.75-.33-33.12-13.93-36.8-34.45-3.2-17.93,1.6-34.61,7.61-51.14,3.76-10.34,8.91-20,13.56-30a20,20,0,0,0,.45-17.31c-2.73-6.34-2.11-12.66.69-18.85a12.22,12.22,0,0,1,1.09-2.24c8.84-12,11.3-25.56,10.57-40.08-.41-8.21,2.88-15.21,8.06-21.43,3.41-4.09,6.74-8.25,10.08-12.41,1.64-2.06,1.6-3.22-1.42-4.05-3.44-.94-6.63-.14-9.88.36-20.6,3.14-39-3.39-57-12.46-24-12.13-42.1-30.48-56.86-52.6C24.77,94.08,12.55,75.65,2.88,55.68A24.34,24.34,0,0,1,.12,47.19c-.67-7.4,1.4-9.62,8.82-8.23,9.3,1.74,18.51,4,27.74,6.11C54,49,71.31,53.14,88.69,56.85a76.69,76.69,0,0,0,35.6-1.05c9.15-2.37,18.32-4.7,27.53-6.87,5.28-1.24,8.75,2.35,12.19,5.38,5.35,4.72,5.17,4.74,10.31-.24C192,37,213.46,27.48,237.21,22.58c5.69-1.17,11.47-1.95,17.24-2.68,3.16-.4,4.66-2,5.19-5,.75-4.25,1.74-8.46,2.58-12.7.2-1.06.63-2.1,1.68-2.17,1.36-.1,1.34,1.21,1.45,2.17.32,2.81.54,5.63.91,8.44.46,3.57,1.35,7,5.17,8.46,4,1.47,7.3-.26,9.83-3.13C286.18,10.34,291,4.69,297.65.28Z"/><path d="M166.4,99.84c5.32-24.55,20.84-39.78,38.86-53,15.64-11.45,33.41-17.65,52.55-20.2,3.25-.44,5.6.07,6.21,3.8A16.53,16.53,0,0,0,265,33.3c.55,1.53,1.41,2.69,3.29,2.34,2.05-.38,1.92-2,1.91-3.5,0-3-.73-6.18,4.23-5.85,4.51.3,4.94,3,4.85,6.5,0,1.2-.75,3.07,1,3.44,2,.43,2.07-1.7,2.68-3,.95-2,.15-5.14,3.11-5.65,3.41-.59,6.92-.54,7.2,4.38.1,1.6.58,3,2.34,3.39s2.34-1.08,3-2.21c1.77-3.15,4.58-3.06,7.42-2.29,37.32,10.13,62.35,32.34,70.18,71.45.46,2.31.12,6,3.12,5.85,2.09-.12,1.74-3.82,1.9-6,.64-9,.05-18-3.25-26.53-.54-1.39-.78-2.89-1.18-4.33-1-3.59.63-6.14,3.33-8.2s5.75-2.74,8.87-1c1.73,1,3.74,1.95,4.81,3.5C400.82,75.9,411.88,78.16,423,79.29c27.85,2.84,55.57,2.41,82.44-6.78,9-3.06,17.64-6.92,26.5-10.26,1.28-.49,2.92-2.72,4.15-.59,1,1.79-.56,3.49-2,4.66-5.35,4.33-11.42,7.41-17.63,10.3-17.62,8.2-36.38,11.33-55.55,12.95-18.31,1.54-36.59,1.18-54.89,0-.5,0-1,0-1.49-.09-10-1.11-10.09-1.09-7.94,9.12,1.09,5.18.07,9.5-4.05,13-7.29,6.23-9.73,14.76-11.4,23.76-2.43,13.11-5,26.28-13,37.42-11,15.39-26.88,22.76-44.78,26.76a27.65,27.65,0,0,1-14.25-.53,25.17,25.17,0,0,0-16.59.82,32.81,32.81,0,0,1-23,0,51.22,51.22,0,0,0-25.1-2.09c-24.17,3.62-46-1.83-64.75-17.64-10.91-9.19-15.92-21.86-18.49-35.61s-5.85-27.35-12.42-39.84c-3-5.66-.66-11.13-.06-16.59.92-8.34-.45-10.54-8.75-10.26-9.81.34-19.58,1.53-29.43,1.13-14.1-.57-27.5-4.39-40.94-8.2-16.78-4.76-34-7.76-50.34-14.24-.46-.19-.94-.35-1.39-.56-2.42-1.08-5.74-2.26-4.57-5.35,1.07-2.79,4.16-.82,6.19-.27C37.3,55.08,54.64,61.48,72.58,65.88c16.16,4,32.29,7.81,49.19,6.82,8-.47,15.46-1.85,21.73-7.31a31.54,31.54,0,0,1,5.81-3.86c6.75-3.62,13.53-.76,15.82,6.56,1.42,4.55,1.15,9.21.9,13.87A88.72,88.72,0,0,0,166.4,99.84Z"/><path d="M286.08,323.9c1.2,18.54-1.43,36.16-4,53.77a41.76,41.76,0,0,1-4.47,12.63,8.35,8.35,0,0,1-6.74,4.53c-14,1.95-28.14,2.53-42.28,3.08a487.08,487.08,0,0,1-62.31-1.44c-6.42-.57-12.85-1.35-19.06-3.46-7-2.37-11-7.41-12.95-14.1a80.84,80.84,0,0,1,2.07-51.39c.41-1.09.91-2.15,1.36-3.22,1.46-3.49,3.08-3.95,6.12-1.16,5.25,4.82,10.45,9.84,17.34,12.42,1.19.45,2.55,1.65,3.59.17s-.28-2.48-1.22-3.42c-2-2-3.92-4.1-6.06-5.94-9.78-8.38-14-19.56-16.2-31.78a19.67,19.67,0,0,1-.13-4c0-1,.3-2.21,1.26-2.54s1.71.81,2.36,1.51c.9,1,1.72,2,2.54,3.07,6.12,7.89,9.63,9.25,18.27,4.39,14.35-8.07,24.32-21.62,19.2-37.13-3.63-11-9.21-21.58-21.21-26.89-9-4-11.62-15.62-6.19-23.37,2.09-3,4.3-3.83,7.49-1.49a26.44,26.44,0,0,1,7.74,9,92.26,92.26,0,0,0,11.1,16.53c9.9,11.51,22.76,16.27,37.53,16.79a219.44,219.44,0,0,0,48.68-3.34c4.95-.93,7.87.79,9.49,5.57,2.38,7,2.58,14.4,3.43,21.63C284.78,291,287.53,307.64,286.08,323.9Z"/><path d="M340.72,399.67c-13.39-.09-25.53-.34-37.58-2.1-9.11-1.33-11.12-3.34-10-12.43,2.09-17.51,2.92-35.12,4.71-52.65,1.21-11.85-.46-23.61-2-35.29-2-15-2.93-30.1-4.41-45.15-.37-3.84,1.3-4.94,4.89-4.85,10.82.24,21.65.41,32.47.34,10.5-.06,20.39-3,29.69-7.64,9-4.54,14.83-12.08,18.61-21.34,1.74-4.26,3.24-9.93,8.83-9.44,5.29.46,6.31,6.28,7.86,10.54A27,27,0,0,1,395.1,229c0,6.64-1.2,11.46-8.86,14.34-15,5.65-21.33,18.21-22.16,33.7-.86,15.78,8.22,25.67,20.53,33.4,4.26,2.67,7.91.35,11.52-2,1.57-1,3.17-3.36,5.08-2.15s1.31,4,1.18,6.06c-.36,6.19-4.55,10.11-8.63,14.08-2.6,2.53-5.76,4.48-7.54,7.88s-.73,4.54,2.81,4.48a9.26,9.26,0,0,0,5.91-2.21c3.38-2.69,7-5.09,10.37-7.76,2.19-1.72,3.8-1.8,5.07.95,8.74,18.92,13,38.41,7.35,59.08-1.43,5.22-5.57,7-10.59,7.63C384.66,399.23,362.14,400.8,340.72,399.67Z"/><path d="M517.43,79.17C494,121,415.15,171.09,381.11,166c3.38-7.43,6.84-14.76,10.05-22.19,5.3-12.26,10.15-24.64,9.28-38.42a18.74,18.74,0,0,1,.73-4.93c1.08-5.16,2.82-6.46,8-5.71,14.94,2.18,29.87,1.87,44.82.08a240.52,240.52,0,0,0,60.82-15A21.76,21.76,0,0,1,517.43,79.17Z"/><path d="M161.58,168.58c-15.51-1.65-27.78-8.39-39.59-15.85C89,131.9,60.28,105.91,33.41,77.79,29.74,73.94,26.25,69.91,22.68,66c-.08-.1,0-.31-.14-1.26,7.26,2.24,14.24,4.44,21.23,6.55C68.3,78.65,93,85.17,118.64,87.71a55.6,55.6,0,0,0,13-.29c4.08-.54,5.73,1.2,6.17,5.08.77,7,.32,14,1.14,20.93a93.93,93.93,0,0,0,13,38.35C155.12,157,158.06,162.41,161.58,168.58Z"/><path d="M244.23,240.63c-25.47.59-46.6-9.18-64.36-27a24,24,0,0,1-5.46-8.87c-2-5.51-2.35-11.37-3-17.14-.14-1.25-.45-2.94,1.07-3.56s2.28,1,3.08,2c6,7.24,12.7,13.64,21.27,17.8,20.49,9.93,42,11.7,64.27,8.27,5.08-.78,10.24-1.1,15.36-1.65,3.09-.33,4.62.82,4.71,4.13a90.43,90.43,0,0,0,1,12.43c.92,5.67-1.74,8.31-6.81,9.65A125.43,125.43,0,0,1,244.23,240.63Z"/><path d="M312.08,208.42c21.94,3.11,40.17-7.81,57.08-22.28,1.77-1.52,3.46-4.57,6.17-3.23,3,1.48,3.79,4.84,4,8.11.74,12.83-6.27,21.76-16,28.11-19.53,12.71-41.22,18.11-64.6,16.31-4.74-.36-7.21-1.83-6.64-7.26.56-5.27.21-10.65.1-16-.07-2.81,1.11-3.88,3.85-3.82C300.81,208.49,305.64,208.42,312.08,208.42Z"/><path d="M374.14,280.67A49.47,49.47,0,0,1,384.56,253c2.7-3.6,6.06-3.56,9.66-1.47a13,13,0,0,1,1.6,1.19c8.05,6.42,8.24,7.31,1.75,15.29-4.5,5.54-9.23,10.89-14,16.23-1.75,2-3.78,4.34-6.75,3.19S374.3,283.11,374.14,280.67Z"/><path d="M171,280.43c-3.36-6.47-6.62-12.45-9.59-18.58a16,16,0,0,0-12.14-9.3c-2-.37-4.07-.7-4.66-3.07s.93-4.1,2.46-5.65c2.36-2.38,5.36-2.47,8.4-2.1C173,243.88,182,265.78,171,280.43Z"/><path d="M154.06,266.26a17.6,17.6,0,0,1-1,4.23c-1.71,3.9-4.47,6.65-9.15,6.11-4.45-.51-5.73-4-6.5-7.66a12.67,12.67,0,0,1,.36-6.37c1.51-4.89,5.78-8.44,9.55-7.81S154,259.72,154.06,266.26Z"/><path d="M150.8,285c0-6.35,3.17-10.63,7.87-10.64,4.38,0,7.68,4.23,7.6,9.74-.08,5.73-3.92,10.53-8.35,10.43S150.79,290.78,150.8,285Z"/><path d="M398.24,283.4A24.33,24.33,0,0,1,401,272.54c2-3.56,4.89-3.64,7.25-.23,3.88,5.62,3.75,14.63-.29,20.13-2.38,3.24-4.56,3.2-7-.05C398.81,289.59,398.8,286.22,398.24,283.4Z"/><path d="M388.16,290.32c.53-2.6.21-7.8,4.54-7.7s3.26,5.23,3.57,8.53a5,5,0,0,1-.32,2.43c-1.1,2.39-.72,6.8-4,6.44-3-.32-3.34-4.39-3.78-7.33A23.33,23.33,0,0,1,388.16,290.32Z"/><path class="cls-1" d="M322.25,142.65c-7.14-.24-14.32.49-21.42-.87-2.5-.48-4.43-1.28-4.62-4.25-.89-13.73.69-26.95,8.13-38.92C315,81.46,333.9,78.13,350.87,90.38c11.9,8.58,19.22,20.53,24.7,33.81,1.79,4.36-.95,7.11-4,9.23-5.82,4.09-12.71,5.61-19.53,7.08C342.24,142.62,332.26,142.89,322.25,142.65Z"/><path class="cls-1" d="M228,144.61c-14.23-.85-29.46-1.91-44.06-7.11-9-3.21-10.84-7.54-7-16.46,6-13.84,14.47-25.36,28.61-31.9,14.68-6.8,31.55-1.51,39,12.76,5.52,10.58,8.87,21.85,8.49,34-.11,3.86-1.48,6.15-5.62,6.86C241.32,143.81,235.19,144.1,228,144.61Z"/><path class="cls-1" d="M275,193.71c-8.72-.17-14.37-2.75-18.42-8.08-5-6.62-9.68-13.52-14.49-20.29-.91-1.28-1.65-2.7-.48-4.1,1-1.19,2.53-.83,3.75-.41,7.95,2.69,15.69,1.69,23.43-1a16,16,0,0,1,14.8,1.77c5.51,3.73,11.12,3.81,17,1.1,1.77-.82,3.85-2.3,5.36-.19,1.27,1.77.36,4-1,5.56-4.78,5.53-9.8,10.86-14.6,16.38C285.8,189.79,280.62,193.94,275,193.71Z"/><path class="cls-1" d="M352.39,81.51c-4.5-.58-7.55-2.17-10.64-3.62-8.15-3.81-16.09-3.35-23.81,1.12-5,2.91-10,5.94-15,8.86-1,.61-2,2.29-3.41,1.06s-.39-2.84.47-4A29.75,29.75,0,0,1,304.17,80C314.86,70.55,336.4,64.3,352.39,81.51Z"/><path class="cls-1" d="M196.64,76.68c7.87-9.84,21.22-12.72,34.49-7.56a44.27,44.27,0,0,1,16,10.72c1,1.07,2.83,2.52,1.36,4.26s-3,.26-4.42-.58c-4.39-2.68-8.74-5.41-13.13-8.1-7.43-4.56-15.07-5.37-23.28-2C204.26,74.86,200.78,76.59,196.64,76.68Z"/><path class="cls-1" d="M276.57,148.44c-4.5-.25-9-.69-12.68-3.66-3.45-2.76-3.38-5.37.13-8.1,5.42-4.21,18.59-3.33,23.39,1.5,2.39,2.41,2.25,4.72-.19,6.85A14.61,14.61,0,0,1,276.57,148.44Z"/><path class="cls-1" d="M261.42,61.14c4.4-7.54,18.14-8.57,26.81-1.68C278.62,58.14,269.85,57,261.42,61.14Z"/><path class="cls-1" d="M302.29,52.54c5.72-7.26,20-6.72,25.71,1.57C319.17,49.8,311.16,50.07,302.29,52.54Z"/><path class="cls-1" d="M248.73,47.6c-7.39-2.91-14,.5-21,2.18C230.65,42.42,243.57,41.17,248.73,47.6Z"/><path class="cls-2" d="M271.46,127.24c3-1.73,3-1.73,6.11-.09A12.72,12.72,0,0,1,271.46,127.24Z"/><path d="M329.1,108.64c-3.63-.13-7.71-4.29-7.73-7.88s4-7.33,8.07-7.24c3.67.09,6.53,3.33,6.5,7.38C335.9,105.12,332.68,108.77,329.1,108.64Z"/><path d="M363.78,120.52c3.37,2.9,4.45,6.21,2.67,9.81-1.56,3.16-4.32,4.77-8.52,4.25C360.74,130,364.89,126.41,363.78,120.52Z"/><path d="M208,110.52c-3.51,0-6.72-3.64-6.56-7.37s3.4-7.37,6.77-7.4S216.07,100,216,103C216,106.4,211.57,110.56,208,110.52Z"/><path d="M185.57,120.86c.14,5,1.33,9.5,5.64,12.86-4.18,1.18-5.91,1.05-7.08-1.32C182.2,128.47,182.71,124.53,185.57,120.86Z"/><path d="M271.37,174.5c4.34,0,7.81.94,10.64,3.52,3,2.73,2.6,6.5-1.12,8-6.27,2.54-12.43,1.38-18.08-1.94-2.78-1.63-2.31-5.43.61-7.43A12.36,12.36,0,0,1,271.37,174.5Z"/><path d="M283.94,138.77c-4.85,4.33-9.67,5.41-13.32,3-1.19-.78-2.89-1.62-2.56-3.34.26-1.4,1.93-1.67,3.17-1.95C275.58,135.49,279.77,135.69,283.94,138.77Z"/></svg>